<?xml version="1.0" standalone="no"?><!DOCTYPE svg PUBLIC "-//W3C//DTD SVG 1.1//EN" "http://www.w3.org/Graphics/SVG/1.1/DTD/svg11.dtd"><svg t="1627411901825" class="icon" viewBox="0 0 1024 1024" version="1.1" xmlns="http://www.w3.org/2000/svg" p-id="4252" xmlns:xlink="http://www.w3.org/1999/xlink" width="200" height="200"><defs><style type="text/css">@font-face { font-family: feedback-iconfont; src: url("//at.alicdn.com/t/font_1031158_1uhr8ri0pk5.eot?#iefix") format("embedded-opentype"), url("//at.alicdn.com/t/font_1031158_1uhr8ri0pk5.woff2") format("woff2"), url("//at.alicdn.com/t/font_1031158_1uhr8ri0pk5.woff") format("woff"), url("//at.alicdn.com/t/font_1031158_1uhr8ri0pk5.ttf") format("truetype"), url("//at.alicdn.com/t/font_1031158_1uhr8ri0pk5.svg#iconfont") format("svg"); }
</style></defs><path d="M89.088 59.392l62.464 803.84c1.024 12.288 9.216 22.528 20.48 25.6L502.784 993.28c6.144 2.048 12.288 2.048 18.432 0l330.752-104.448c11.264-4.096 19.456-14.336 20.48-25.6l62.464-803.84c1.024-17.408-12.288-31.744-29.696-31.744H118.784c-17.408 0-31.744 14.336-29.696 31.744z" fill="#FC490B" p-id="4253"></path><path d="M774.144 309.248h-409.6l12.288 113.664h388.096l-25.6 325.632L512 820.224l-227.328-71.68L271.36 578.56h118.784v82.944l124.928 33.792 123.904-33.792 10.24-132.096H267.264l-25.6-324.608h540.672z" fill="#FFFFFF" p-id="4254"></path></svg>