<svg width="85" height="85" xmlns="http://www.w3.org/2000/svg" xmlns:xlink="http://www.w3.org/1999/xlink" stroke-linejoin="round" stroke-linecap="round" stroke="#000" fill-rule="evenodd" fill="#fff">

 <symbol overflow="visible" id="A">
  <path id="svg_1" fill-rule="nonzero" fill="#16111c" d="m3.265,0l0,23.206l10.25,-11.557l0.467,0l-7.598,8.575l10.014,14.718l-3.267,0l-8.622,-12.686l-1.257,1.447l0,11.24l-3.252,0l0,-34.943l3.265,0zm23.505,35.135q-4.92,0 -8,-2.795q-3.07,-2.795 -3.082,-8.62q0,-5.824 3.2,-9.03q3.2,-3.205 8.114,-3.23q4.92,0 8,2.798q3.07,2.798 3.078,8.622q0,5.83 -3.2,9.043q-3.2,3.212 -8.112,3.214l0.002,-0.002zm0.303,-23.302q-3.54,0 -5.87,3.147q-2.33,3.147 -2.332,8.767q0,5.615 2.143,8.317q2.143,2.702 5.682,2.702q3.54,0 5.87,-3.147q2.332,-3.147 2.332,-8.76q0,-5.615 -2.143,-8.317q-2.142,-2.702 -5.686,-2.706l0.004,-0.003zm33.97,23.107q-3.17,0 -4.333,-1.2q-1.073,-1.024 -1.073,-1.78l0,-0.98q-2.284,4.14 -7.314,4.14q-5.876,0 -6.666,-5.312a6.88,6.88 0 0 1 -0.093,-1.142c0.006,-0.434 0.069,-0.865 0.187,-1.282q0.185,-0.7 1.073,-1.536q1.78,-1.68 7.8,-2.052q1.5,-0.14 2.746,-0.14q1.255,0 2.283,0.1l0,-7.72q-0.093,-0.045 0,-0.445a1.76,1.76 0 0 0 -0.162,-1.024a6.46,6.46 0 0 0 -0.668,-1.237q-0.423,-0.605 -1.5,-1.046a7.43,7.43 0 0 0 -2.795,-0.445a15.6,15.6 0 0 0 -4.051,0.637q-2.303,0.63 -3.376,1.235l-0.187,-0.327a19.98,19.98 0 0 1 8.435,-1.91q4.796,0 6.336,1.725q1.2,1.35 1.2,2.842l0,15.6q0,1.353 0.54,2.074q0.54,0.72 1.095,0.768l0.512,0.093l1.447,0l0,0.367l-1.436,-0.003zm-11.974,-0.187c1.643,0.002 3.228,-0.603 4.451,-1.7q1.98,-1.7 2.12,-3.285l0,-5.63q-1.262,-0.102 -2.542,-0.102c-0.848,0 -1.695,0.047 -2.537,0.14q-3.543,0.423 -4.616,1.585q-1.073,1.162 -1.068,3.216a8.34,8.34 0 0 0 0.045,0.839q0.418,4.947 4.146,4.947l0.001,-0.01z"/>
 </symbol>
 <g>
  <title>background</title>
  <rect fill="none" id="canvas_background" height="87" width="87" y="-1" x="-1"/>
 </g>
 <g>
  <title>Layer 1</title>
  <use transform="matrix(1,0,0,1,0,0) " stroke="null" id="svg_2" y="24.931499" x="11.2605" xlink:href="#A"/>
 </g>
</svg>