<?xml version="1.0" standalone="no"?><!DOCTYPE svg PUBLIC "-//W3C//DTD SVG 1.1//EN" "http://www.w3.org/Graphics/SVG/1.1/DTD/svg11.dtd"><svg t="1645300987299" class="icon" viewBox="0 0 1024 1024" version="1.1" xmlns="http://www.w3.org/2000/svg" p-id="882" xmlns:xlink="http://www.w3.org/1999/xlink" width="200" height="200"><defs><style type="text/css"></style></defs><path d="M22.37173187 391.01811227a506.7304198 506.7304198 0 1 1 368.6463804 610.61015586 503.56335467 503.56335467 0 0 1-368.6463804-610.61015586" fill="#F7F8F8" p-id="883"></path><path d="M978.82539925 321.97609257H588.00956298v75.37614994h415.51894422a523.19915845 523.19915845 0 0 0-24.70310795-75.37614994m-100.07925792-156.4530171H588.00956298V242.79946447h350.91081571a506.7304198 506.7304198 0 0 0-60.17423736-77.276389M147.78751075 862.27740269h729.0583915a563.73759203 563.73759203 0 0 0 63.34130249-77.27638902H86.97986039a480.7604858 480.7604858 0 0 0 63.34130247 77.27638902m482.66072487-839.90567082c-14.56849957-3.80047815-29.77041216-6.96754327-44.97232475-9.50119538v75.37614996h198.25827673a482.02731184 482.02731184 0 0 0-153.28595198-63.34130249m380.04781486 452.25689967H588.00956298v77.27638903h426.92037868a450.35666061 450.35666061 0 0 0 0-77.27638903M46.44142681 706.45779861h931.11714638a453.52372574 453.52372574 0 0 0 24.06969494-73.47591088v-3.80047815H21.10490582a459.85785597 459.85785597 0 0 0 25.33652099 77.27638903m344.57668546 295.17046952A484.56096394 484.56096394 0 0 0 480.32934876 1018.7304198h63.34130248a495.32898536 495.32898536 0 0 0 237.52988429-77.276389H241.53263843a499.76287654 499.76287654 0 0 0 149.48547384 63.34130246" fill="#E72D14" p-id="884"></path><path d="M549.37136844 523.40143444l-10.7680214-7.60095629-10.76802142 7.60095629 3.80047815-12.6682605-10.76802142-7.60095629h13.30167351l4.43389118-13.30167351 4.43389117 13.30167351h13.30167353l-10.76802143 7.60095629zM496.16467438 116.75027255l3.80047814 15.20191258-10.7680214-8.2343693-10.76802143 8.2343693 3.80047815-13.30167351-10.76802142-7.60095629h13.30167352l4.43389118-13.30167352 4.43389116 13.30167352h13.30167351z m0 116.54799656l3.80047814 12.6682605-10.7680214-8.23436932-10.76802143 8.23436932 3.80047815-12.6682605-10.76802142-8.23436932h13.30167352l4.43389118-12.6682605 4.43389116 12.6682605h13.30167351z m0 113.38093143l4.43389118 13.30167352-11.40143444-8.23436933-10.76802143 8.23436933 4.43389117-13.30167352-11.40143444-7.60095629h13.93508654l3.80047816-12.66826049 4.43389116 12.66826049h12.03484748z m0 126.68260496l-10.76802142-7.6009563-10.7680214 7.6009563 3.80047813-12.6682605-8.86778235-12.03484749h13.30167352l4.43389119-12.66826049 3.80047813 12.66826049h13.93508655l-11.40143445 8.23436934zM444.22480635 173.12403175l4.43389116 12.6682605-10.7680214-7.60095628-11.40143445 7.60095628 4.43389118-12.6682605-10.76802144-7.60095628h13.30167353l4.43389118-13.30167353 3.80047815 13.30167353h13.93508654z m0 112.74751842l4.43389116 12.66826048-10.7680214-7.6009563-11.40143445 7.6009563 4.43389118-12.66826048-10.76802144-8.23436934h13.30167353l4.43389118-12.66826048 3.80047815 12.66826048h13.93508654z m0 115.28117049l4.43389116 12.6682605-10.7680214-8.23436932-11.40143445 8.23436932 4.43389118-12.6682605-10.76802144-8.23436932h13.30167353l4.43389118-12.6682605 3.80047815 12.6682605h13.93508654z m4.43389116 122.24871378l-10.7680214-7.60095629-11.40143445 7.60095629 4.43389118-12.6682605-10.76802144-7.60095629h13.30167353l4.43389118-13.30167351 3.80047815 13.30167351h13.93508654L444.22480635 512z m-53.84010709-406.65116189l4.43389117 15.20191258-10.76802143-8.2343693-11.40143445 8.2343693 4.43389119-13.30167351-10.76802142-7.60095629H385.31739506l4.43389115-13.30167352 3.80047816 13.30167352h13.93508654z m0 116.54799656l4.43389117 12.6682605-10.76802143-8.23436932-11.40143445 8.23436932 4.43389119-12.6682605-10.76802142-8.23436932H385.31739506l4.43389115-12.6682605 3.80047816 12.6682605h13.93508654z m0 113.38093143l3.80047815 13.30167352-13.30167351-8.23436933-10.76802143 8.23436933 3.80047814-13.30167352-10.76802142-7.60095629H385.31739506v-12.66826049l4.43389115 12.66826049h13.30167353z m0 126.68260496l-9.50119536-8.86778236-11.40143446 7.6009563 4.43389117-12.6682605-9.50119537-10.76802143H385.31739506v-10.13460838l3.80047813 12.66826049h13.30167353l-10.76802143 8.23436932z m-53.8401071-411.71846611l4.43389116 13.30167353-8.86778233-6.33413025-10.76802143 8.23436932 4.43389117-13.30167351-8.23436932-10.76802142h13.30167352l3.80047816-12.66826051 4.43389117 12.66826051h13.30167352z m0 112.74751842l4.43389116 12.66826049-11.40143444-7.60095631-10.76802141 7.60095631 4.43389116-12.66826049-5.70071722-8.86778234h13.30167352l3.80047816-13.30167353 4.43389117 13.30167353h13.30167352z m0 112.7475184l4.43389116 12.6682605-11.40143444-7.6009563-10.76802141 7.6009563 4.43389116-12.6682605-5.70071722-9.50119538h13.30167352l3.80047816-12.66826048 4.43389117 12.66826048h13.30167352z m0 115.28117051l4.43389116 12.6682605-11.40143444-8.23436932-10.76802141 8.23436932 4.43389116-12.6682605-5.70071722-9.50119538h13.30167352l3.80047816-12.6682605 4.43389117 12.6682605h13.30167352z m4.43389116 122.24871378l-11.40143444-7.60095629-10.76802141 7.60095629 4.43389116-12.6682605-5.70071722-8.86778235h13.30167352l3.80047816-13.30167351 4.43389117 13.30167351h13.30167352L343.51213542 512z m-51.306455-411.7184661l4.43389117 12.66826051-11.40143444-7.6009563-10.76802142 7.6009563 4.43389118-12.66826051-11.40143444-8.23436932h13.93508654l3.80047814-12.66826048 4.43389118 12.66826048h13.30167352z m0 115.91458352l4.43389117 12.66826051-11.40143444-7.60095629-10.76802142 7.60095629 4.43389118-12.66826051-11.40143444-7.60095628h13.93508654l3.80047814-12.6682605 4.43389118 12.6682605h13.30167352z m0 114.01434448l4.43389117 12.6682605-10.76802142-7.60095632-11.40143444 7.60095632 4.43389118-12.6682605-12.03484748-8.23436933h13.30167352l4.43389117-12.6682605 3.80047815 12.6682605h13.93508656z m0 126.68260494l-10.76802141-8.23436933-10.76802143 8.23436933 4.43389119-12.66826049-9.50119538-8.23436934h13.93508654l3.80047816-12.66826049 4.43389115 12.66826049h13.30167353l-10.76802142 8.23436934zM242.79946447 173.12403175l3.80047815 12.6682605-10.76802141-7.60095628-10.76802142 7.60095628 4.43389117-12.6682605-11.40143445-7.60095628h13.93508654l3.80047816-13.30167353 4.43389118 13.30167353h13.30167352z m0 112.74751842l3.80047815 12.66826048-10.76802141-7.6009563-10.76802142 7.6009563 4.43389117-12.66826048-11.40143445-8.23436934h13.93508654l3.80047816-12.66826048 4.43389118 12.66826048h13.30167352z m0 115.28117049l3.80047815 12.6682605-10.76802141-8.23436932-10.76802142 8.23436932 4.43389117-12.6682605-11.40143445-8.23436932h13.93508654l3.80047816-12.6682605 4.43389118 12.6682605h13.30167352z m3.80047815 122.24871378l-10.76802141-7.60095629-10.76802142 7.60095629 4.43389117-12.6682605-11.40143445-7.60095629h13.93508654l3.80047816-13.30167351 4.43389118 13.30167351h13.30167352L242.79946447 512zM195.29348762 228.2309649l3.80047814 12.66826051-10.76802142-8.23436933-10.76802141 8.23436933 3.80047815-12.66826051-10.76802142-8.23436931h12.03484747l3.80047815-12.66826049 4.43389118 12.66826049h13.30167351z m0 113.38093144l4.43389116 12.6682605-10.76802141-7.6009563-11.40143444 7.6009563 4.43389118-12.6682605-10.76802144-7.6009563h13.30167352l1.26682606-12.03484747 3.80047815 13.30167352h13.30167351z m0 126.68260495l-10.76802143-7.60095629-10.76802141 7.60095629 3.80047815-12.66826049-10.76802142-6.96754329h13.30167352l4.43389116-12.66826049 4.43389118 12.66826049h13.30167353l-10.76802143 8.23436934zM433.45678493 52.77555706l4.43389118-12.66826051 3.80047815 12.66826051h13.93508654l-11.40143445 7.60095629 4.43389116 13.30167352-10.7680214-5.0673042-11.40143445 8.23436932 4.43389118-13.30167351-10.76802144-7.6009563z m100.71267093 340.14279428l4.43389118-12.6682605 4.43389117 12.6682605h13.30167353l-10.76802143 8.23436932 3.80047813 12.6682605-10.7680214-8.23436932-10.76802142 8.23436932 3.80047815-12.6682605-10.76802142-8.23436932z m0-115.28117051l4.43389118-12.66826048 4.43389117 12.66826048h13.30167353l-10.76802143 8.23436934 3.80047813 12.66826048-10.7680214-7.6009563-10.76802142 7.6009563 3.80047815-12.66826048-10.76802142-8.23436934z m0-112.11410536l4.43389118-13.30167353 4.43389117 13.30167353h13.30167353l-10.76802143 7.60095628 3.80047813 12.6682605-10.7680214-7.60095628-10.76802142 7.60095628 3.80047815-12.6682605-10.76802142-7.60095628z m0-112.74751841l4.43389118-12.66826051 4.43389117 12.66826051h13.30167353l-10.76802143 7.60095629 3.80047813 13.30167352-10.7680214-5.0673042-10.76802142 8.23436932 3.80047815-13.30167351-10.76802142-7.6009563zM142.08679354 285.87155017l3.80047815 12.66826048-10.76802141-7.6009563-10.76802143 7.6009563 3.80047813-12.66826048-10.76802141-8.23436934H131.95218513l4.43389119-12.66826048 3.80047815 12.66826048h13.93508655z m0 115.28117049l3.80047815 12.6682605-10.76802141-8.23436932-10.76802143 8.23436932 3.80047813-12.6682605-10.76802141-8.23436932H131.95218513l4.43389119-12.6682605 3.80047815 12.6682605h13.93508655z m3.80047815 122.24871378l-10.76802141-7.60095629-10.76802143 7.60095629 3.80047813-12.6682605-10.76802141-7.60095629H131.95218513l4.43389119-13.30167351 3.80047815 13.30167351h13.93508655L142.08679354 512z m-54.47352013-183.68977717l3.80047815 12.6682605-10.76802143-7.60095631-10.76802141 7.60095631 3.80047815-12.6682605-8.86778235-7.6009563h13.93508653l1.90023908-10.1346084 4.43389117 13.30167352h13.30167353z m3.16706513 126.68260495l-10.76802143-8.23436932-11.40143444 8.23436932 4.43389117-12.6682605-8.23436932-9.50119537h13.30167352l4.43389118-12.66826049 3.80047814 12.66826049h13.30167353l-10.76802143 8.23436932z m-49.40621594 58.27399828l-10.76802142-7.60095629-11.40143444 7.60095629L27.43903606 512l-10.76802142-7.60095629h13.30167352l4.43389117-13.30167353 3.80047816 13.30167353h13.30167352L40.74070958 512zM588.00956298 12.87053649l-46.87256384-7.60095629-92.47830163 5.70071721a506.7304198 506.7304198 0 0 0-253.36520989 107.68021421v5.70071723-3.16706512a393.98290139 393.98290139 0 0 0-47.50597687 44.33891174h7.6009563l-10.76802142 7.60095628 3.80047815 12.6682605-10.7680214-7.60095628-5.70071725 3.16706511c-10.13460839 11.40143444-19.63580377 24.06969494-29.13699912 36.73795543l-6.96754326 9.50119539v8.86778234l-6.33413027-3.80047816a496.59581141 496.59581141 0 0 0-67.14178061 158.35325619h8.23436931l4.43389119-12.6682605 3.80047813 12.6682605h13.30167353l-10.76802143 8.23436932 4.43389117 12.66826049-10.7680214-8.23436932-11.40143445 8.23436932 4.43389117-12.66826049-6.33413026-5.06730419a487.09461604 487.09461604 0 0 0-12.03484747 156.4530171H588.00956298z" fill="#073470" p-id="885"></path></svg>